HIERARCHY
ROOT Hips
{
  OFFSET 0.000 78.838 0.000
  CHANNELS 6 Xposition Yposition Zposition Zrotation Xrotation Yrotation
  JOINT LeftUpLeg
  {
    OFFSET 4.160 0.494 2.402
    CHANNELS 6 Xposition Yposition Zposition Zrotation Xrotation Yrotation
    JOINT LeftLeg
    {
      OFFSET 0.000 -41.867 0.000
      CHANNELS 6 Xposition Yposition Zposition Zrotation Xrotation Yrotation
      JOINT LeftFoot
      {
        OFFSET 0.000 -37.465 0.000
        CHANNELS 6 Xposition Yposition Zposition Zrotation Xrotation Yrotation
        End Site
        {
          OFFSET 0.000 0.000 12.100
        }
      }
    }
  }
  JOINT RightUpLeg
  {
    OFFSET -4.160 0.494 2.402
    CHANNELS 6 Xposition Yposition Zposition Zrotation Xrotation Yrotation
    JOINT RightLeg
    {
      OFFSET 0.000 -41.867 0.000
      CHANNELS 6 Xposition Yposition Zposition Zrotation Xrotation Yrotation
      JOINT RightFoot
      {
        OFFSET 0.000 -37.465 0.000
        CHANNELS 6 Xposition Yposition Zposition Zrotation Xrotation Yrotation
        End Site
        {
          OFFSET 0.000 0.000 12.100
        }
      }
    }
  }
  JOINT Spine
  {
    OFFSET 0.000 34.300 0.000
    CHANNELS 6 Xposition Yposition Zposition Zrotation Xrotation Yrotation
    JOINT Spine1
    {
      OFFSET 0.000 25.000 0.000
      CHANNELS 6 Xposition Yposition Zposition Zrotation Xrotation Yrotation
      JOINT LeftShoulder
      {
        OFFSET 1.800 -0.600 0.200
        CHANNELS 6 Xposition Yposition Zposition Zrotation Xrotation Yrotation
        JOINT LeftArm
        {
          OFFSET 12.295 0.000 0.000
          CHANNELS 6 Xposition Yposition Zposition Zrotation Xrotation Yrotation
          JOINT LeftForeArm
          {
            OFFSET 25.940 0.000 0.000
            CHANNELS 6 Xposition Yposition Zposition Zrotation Xrotation Yrotation
            JOINT LeftHand
            {
              OFFSET 22.573 0.000 0.000
              CHANNELS 6 Xposition Yposition Zposition Zrotation Xrotation Yrotation
              JOINT LeftHandThumb1
              {
                OFFSET 4.877 -1.044 3.608
                CHANNELS 6 Xposition Yposition Zposition Zrotation Xrotation Yrotation
                JOINT LeftHandThumb2
                {
                  OFFSET 2.665 0.000 -0.000
                  CHANNELS 6 Xposition Yposition Zposition Zrotation Xrotation Yrotation
                  JOINT LeftHandThumb3
                  {
                    OFFSET 2.543 0.000 -0.000
                    CHANNELS 6 Xposition Yposition Zposition Zrotation Xrotation Yrotation
                    End Site
                    {
                      OFFSET 2.667 0.000 0.000
                    }
                  }
                }
              }
              JOINT LeftHandIndex1
              {
                OFFSET 9.232 -0.301 2.144
                CHANNELS 6 Xposition Yposition Zposition Zrotation Xrotation Yrotation
                JOINT LeftHandIndex2
                {
                  OFFSET 4.225 0.000 -0.000
                  CHANNELS 6 Xposition Yposition Zposition Zrotation Xrotation Yrotation
                  JOINT LeftHandIndex3
                  {
                    OFFSET 2.654 -0.000 -0.000
                    CHANNELS 6 Xposition Yposition Zposition Zrotation Xrotation Yrotation
                    End Site
                    {
                      OFFSET 1.958 0.000 0.000
                    }
                  }
                }
              }
              JOINT LeftHandMiddle1
              {
                OFFSET 8.920 0.000 0.000
                CHANNELS 6 Xposition Yposition Zposition Zrotation Xrotation Yrotation
                JOINT LeftHandMiddle2
                {
                  OFFSET 4.863 -0.000 -0.000
                  CHANNELS 6 Xposition Yposition Zposition Zrotation Xrotation Yrotation
                  JOINT LeftHandMiddle3
                  {
                    OFFSET 2.765 0.000 0.000
                    CHANNELS 6 Xposition Yposition Zposition Zrotation Xrotation Yrotation
                    End Site
                    {
                      OFFSET 2.006 0.000 0.000
                    }
                  }
                }
              }
              JOINT LeftHandRing1
              {
                OFFSET 8.689 -0.126 -2.087
                CHANNELS 6 Xposition Yposition Zposition Zrotation Xrotation Yrotation
                JOINT LeftHandRing2
                {
                  OFFSET 4.538 -0.000 0.000
                  CHANNELS 6 Xposition Yposition Zposition Zrotation Xrotation Yrotation
                  JOINT LeftHandRing3
                  {
                    OFFSET 2.305 -0.000 -0.000
                    CHANNELS 6 Xposition Yposition Zposition Zrotation Xrotation Yrotation
                    End Site
                    {
                      OFFSET 1.923 0.000 0.000
                    }
                  }
                }
              }
              JOINT LeftHandPinky1
              {
                OFFSET 8.391 -0.817 -3.758
                CHANNELS 6 Xposition Yposition Zposition Zrotation Xrotation Yrotation
                JOINT LeftHandPinky2
                {
                  OFFSET 3.044 0.000 -0.000
                  CHANNELS 6 Xposition Yposition Zposition Zrotation Xrotation Yrotation
                  JOINT LeftHandPinky3
                  {
                    OFFSET 1.975 0.000 -0.000
                    CHANNELS 6 Xposition Yposition Zposition Zrotation Xrotation Yrotation
                    End Site
                    {
                      OFFSET 1.667 -0.000 -0.000
                    }
                  }
                }
              }
            }
          }
        }
      }
      JOINT RightShoulder
      {
        OFFSET -1.800 -0.600 0.200
        CHANNELS 6 Xposition Yposition Zposition Zrotation Xrotation Yrotation
        JOINT RightArm
        {
          OFFSET -12.295 0.000 0.000
          CHANNELS 6 Xposition Yposition Zposition Zrotation Xrotation Yrotation
          JOINT RightForeArm
          {
            OFFSET -25.940 0.000 0.000
            CHANNELS 6 Xposition Yposition Zposition Zrotation Xrotation Yrotation
            JOINT RightHand
            {
              OFFSET -22.573 0.000 0.000
              CHANNELS 6 Xposition Yposition Zposition Zrotation Xrotation Yrotation
              JOINT RightHandThumb1
              {
                OFFSET -4.877 -1.044 3.608
                CHANNELS 6 Xposition Yposition Zposition Zrotation Xrotation Yrotation
                JOINT RightHandThumb2
                {
                  OFFSET -2.665 0.000 -0.000
                  CHANNELS 6 Xposition Yposition Zposition Zrotation Xrotation Yrotation
                  JOINT RightHandThumb3
                  {
                    OFFSET -2.543 -0.000 0.000
                    CHANNELS 6 Xposition Yposition Zposition Zrotation Xrotation Yrotation
                    End Site
                    {
                      OFFSET -2.667 0.000 0.000
                    }
                  }
                }
              }
              JOINT RightHandIndex1
              {
                OFFSET -9.232 -0.301 2.144
                CHANNELS 6 Xposition Yposition Zposition Zrotation Xrotation Yrotation
                JOINT RightHandIndex2
                {
                  OFFSET -4.225 0.000 -0.000
                  CHANNELS 6 Xposition Yposition Zposition Zrotation Xrotation Yrotation
                  JOINT RightHandIndex3
                  {
                    OFFSET -2.654 -0.000 -0.000
                    CHANNELS 6 Xposition Yposition Zposition Zrotation Xrotation Yrotation
                    End Site
                    {
                      OFFSET -1.958 -0.000 -0.000
                    }
                  }
                }
              }
              JOINT RightHandMiddle1
              {
                OFFSET -8.920 0.000 -0.000
                CHANNELS 6 Xposition Yposition Zposition Zrotation Xrotation Yrotation
                JOINT RightHandMiddle2
                {
                  OFFSET -4.863 0.000 0.000
                  CHANNELS 6 Xposition Yposition Zposition Zrotation Xrotation Yrotation
                  JOINT RightHandMiddle3
                  {
                    OFFSET -2.765 0.000 0.000
                    CHANNELS 6 Xposition Yposition Zposition Zrotation Xrotation Yrotation
                    End Site
                    {
                      OFFSET -2.006 0.000 0.000
                    }
                  }
                }
              }
              JOINT RightHandRing1
              {
                OFFSET -8.689 -0.126 -2.087
                CHANNELS 6 Xposition Yposition Zposition Zrotation Xrotation Yrotation
                JOINT RightHandRing2
                {
                  OFFSET -4.538 0.000 -0.000
                  CHANNELS 6 Xposition Yposition Zposition Zrotation Xrotation Yrotation
                  JOINT RightHandRing3
                  {
                    OFFSET -2.305 0.000 0.000
                    CHANNELS 6 Xposition Yposition Zposition Zrotation Xrotation Yrotation
                    End Site
                    {
                      OFFSET -1.923 0.000 -0.000
                    }
                  }
                }
              }
              JOINT RightHandPinky1
              {
                OFFSET -8.391 -0.817 -3.758
                CHANNELS 6 Xposition Yposition Zposition Zrotation Xrotation Yrotation
                JOINT RightHandPinky2
                {
                  OFFSET -3.044 0.000 -0.000
                  CHANNELS 6 Xposition Yposition Zposition Zrotation Xrotation Yrotation
                  JOINT RightHandPinky3
                  {
                    OFFSET -1.975 0.000 -0.000
                    CHANNELS 6 Xposition Yposition Zposition Zrotation Xrotation Yrotation
                    End Site
                    {
                      OFFSET -1.667 0.000 -0.000
                    }
                  }
                }
              }
            }
          }
        }
      }
      JOINT Neck
      {
        OFFSET 0.000 0.800 0.000
        CHANNELS 6 Xposition Yposition Zposition Zrotation Xrotation Yrotation
        JOINT Head
        {
          OFFSET 0.000 6.365 0.000
          CHANNELS 6 Xposition Yposition Zposition Zrotation Xrotation Yrotation
          End Site
          {
            OFFSET 0.000 13.243 0.000
          }
        }
      }
    }
  }
}
MOTION
Frames:	4
Frame Time:	0.033333
-25.55508 83.96785 -211.66055 3.11915 -2.30400 35.38058 0.69968 -1.59026 2.82703 -3.38609 7.94114 36.78279 0.23354 -41.92039 -0.23313 -9.32327 43.47625 0.62991 -0.22489 -36.03626 -0.32198 -7.93038 29.44813 9.68499 -3.92971 2.43389 3.19714 17.77663 -14.95478 39.84163 0.15113 -35.92425 0.09374 -7.18004 40.76897 1.93261 0.23247 -42.11224 -0.21283 -1.17930 28.57728 0.50724 -0.07515 30.39854 -0.02851 1.05873 2.18115 21.97968 0.02174 22.23095 0.06438 1.78953 1.49423 15.72904 1.62908 -0.60781 -0.07820 -20.28722 -0.58920 1.54519 15.67892 -0.02461 -0.14924 -103.57172 -23.31325 -19.47244 26.26796 -0.82058 1.32467 52.26311 -40.44638 -5.78742 24.60203 0.21874 -1.35383 -50.85004 41.51681 4.63692 4.87701 -1.04396 3.60802 -41.57594 -8.45725 -7.72881 2.66500 0.00000 -0.00001 -0.00000 0.00000 5.00000 2.54302 0.00000 -0.00001 -0.00000 0.00000 60.00000 9.23200 -0.30098 2.14401 -80.00000 -0.00000 0.00000 4.22502 0.00000 -0.00001 -90.00000 -0.00000 0.00000 2.65398 -0.00002 -0.00001 -69.99999 -0.00000 -0.00000 8.92000 0.00002 0.00001 -80.00000 -0.00000 0.00000 4.86300 -0.00000 -0.00002 -90.00000 -0.00000 0.00000 2.76499 0.00000 0.00000 -69.99999 -0.00000 -0.00000 8.68900 -0.12600 -2.08699 -80.00000 -0.00000 0.00000 4.53801 -0.00001 0.00000 -90.00000 -0.00000 0.00000 2.30499 -0.00002 -0.00001 -69.99999 -0.00000 -0.00000 8.39101 -0.81697 -3.75798 -80.00000 -0.00000 0.00000 3.04401 0.00000 -0.00001 -90.00000 -0.00000 0.00000 1.97500 0.00000 -0.00001 -69.99999 -0.00000 -0.00000 -1.29456 -0.46643 -0.08400 19.83235 -0.67550 -1.97897 -12.36034 -0.00884 -0.12115 55.75546 -6.60478 17.91375 -26.53320 -0.28518 0.88319 145.24794 -84.98569 128.40538 -23.23673 -0.42118 0.45687 -1.67153 -56.21554 0.21311 -4.87702 -1.04399 3.60799 37.41631 21.24929 8.19988 -2.66499 0.00000 -0.00001 0.00000 -0.00000 -4.99472 -2.54300 -0.00002 0.00001 -0.00000 -0.00000 -59.96110 -9.23201 -0.30100 2.14398 79.94812 -0.00000 0.00000 -4.22499 0.00000 -0.00001 89.94164 -0.00000 0.00000 -2.65401 -0.00002 -0.00001 69.95461 -0.00000 0.00000 -8.92001 0.00000 -0.00002 79.94812 -0.00000 0.00000 -4.86300 0.00000 0.00001 89.94164 -0.00000 0.00000 -2.76501 0.00000 0.00000 69.95461 -0.00000 0.00000 -8.68900 -0.12600 -2.08700 79.94812 -0.00000 0.00000 -4.53800 0.00000 -0.00001 89.94164 -0.00000 0.00000 -2.30502 0.00000 0.00002 69.95461 -0.00000 0.00000 -8.39102 -0.81701 -3.75801 79.94812 -0.00000 0.00000 -3.04400 0.00000 -0.00001 89.94164 -0.00000 0.00000 -1.97500 0.00000 -0.00001 69.95461 -0.00000 0.00000 -0.00627 0.72674 0.00002 -0.00001 0.00001 -0.00639 -0.01079 6.53675 -0.04469 -26.52904 6.31970 -35.09839 
-22.42467 83.96452 -212.06772 3.04154 -1.68937 32.48310 0.66260 -1.49347 2.88381 -1.78968 9.05530 39.07796 0.23012 -41.19322 -0.02733 -13.34728 38.61380 0.62510 -0.23907 -36.89051 0.04090 -7.99428 34.95822 10.29562 -3.72018 2.42834 3.21112 17.18887 -14.09486 40.03643 0.13160 -36.16927 0.02033 -10.91874 41.86369 5.35526 0.19383 -42.17721 -0.21545 -3.90634 32.91798 5.85636 -0.07580 30.48575 -0.02620 0.91964 2.05294 23.01731 0.03181 22.32013 0.07179 1.60382 1.72234 16.92511 1.61545 -0.61496 -0.10168 -20.61398 -0.75779 1.96804 15.62738 -0.02042 -0.12395 -108.63091 -23.70632 -18.68896 26.37911 -0.81800 1.00559 52.14935 -42.14042 -6.43920 24.92348 0.19231 -0.97971 -56.37730 37.15553 -0.59640 4.87701 -1.04396 3.60802 -41.57594 -8.45725 -7.72881 2.66500 0.00000 -0.00001 -0.00000 0.00000 5.00000 2.54302 0.00000 -0.00001 -0.00000 0.00000 60.00000 9.23200 -0.30098 2.14401 -80.00000 -0.00000 0.00000 4.22502 0.00000 -0.00001 -90.00000 -0.00000 0.00000 2.65398 -0.00002 -0.00001 -69.99999 -0.00000 -0.00000 8.92000 0.00002 0.00001 -80.00000 -0.00000 0.00000 4.86300 -0.00000 -0.00002 -90.00000 -0.00000 0.00000 2.76499 0.00000 0.00000 -69.99999 -0.00000 -0.00000 8.68900 -0.12600 -2.08699 -80.00000 -0.00000 0.00000 4.53801 -0.00001 0.00000 -90.00000 -0.00000 0.00000 2.30499 -0.00002 -0.00001 -69.99999 -0.00000 -0.00000 8.39101 -0.81697 -3.75798 -80.00000 -0.00000 0.00000 3.04401 0.00000 -0.00001 -90.00000 -0.00000 0.00000 1.97500 0.00000 -0.00001 -69.99999 -0.00000 -0.00000 -1.30711 -0.44982 -0.10535 19.04209 -0.80470 -2.47393 -12.38736 -0.00486 -0.10972 58.10721 -6.53657 22.36064 -26.65009 -0.24535 0.84338 124.08257 -84.86123 107.82697 -22.69391 -0.35661 0.24465 -1.18901 -56.09296 -0.60291 -4.87702 -1.04399 3.60799 37.42561 21.25600 8.20026 -2.66499 0.00000 -0.00001 0.00000 -0.00000 -4.99472 -2.54300 -0.00002 0.00001 -0.00000 -0.00000 -59.97623 -9.23201 -0.30100 2.14398 79.96831 -0.00000 0.00000 -4.22499 0.00000 -0.00001 89.96435 -0.00000 0.00000 -2.65401 -0.00002 -0.00001 69.97227 -0.00000 0.00000 -8.92001 0.00000 -0.00002 79.96831 -0.00000 0.00000 -4.86300 0.00000 0.00001 89.96435 -0.00000 0.00000 -2.76501 0.00000 0.00000 69.97227 -0.00000 0.00000 -8.68900 -0.12600 -2.08700 79.96831 -0.00000 0.00000 -4.53800 0.00000 -0.00001 89.96435 -0.00000 0.00000 -2.30502 0.00000 0.00002 69.97227 -0.00000 0.00000 -8.39102 -0.81701 -3.75801 79.96831 -0.00000 0.00000 -3.04400 0.00000 -0.00001 89.96435 -0.00000 0.00000 -1.97500 0.00000 -0.00001 69.97227 -0.00000 0.00000 -0.00627 0.72671 0.00002 -0.00001 0.00001 -0.00639 -0.01807 6.56340 -0.06560 -25.76559 4.19660 -34.66760 
-19.61967 84.05388 -212.38898 2.81905 -1.22903 28.53160 0.81133 -1.35786 2.99123 0.49253 9.31812 42.43764 0.28546 -40.96606 0.14083 -17.68920 35.23025 2.18843 -0.08331 -35.56198 -0.11817 -9.32140 30.02287 15.38760 -3.48110 2.36678 3.26344 17.04758 -12.92887 41.26674 0.11844 -36.62107 -0.05934 -14.68729 42.49214 8.99007 0.15421 -42.16646 -0.21377 -5.97795 35.58154 9.43781 -0.07357 30.51128 -0.01206 0.79723 2.01898 24.72586 0.02807 22.35175 0.06195 1.68778 1.62153 18.89716 1.60308 -0.62508 -0.11283 -21.05926 -0.87213 2.22347 15.57629 -0.01644 -0.10666 -112.03068 -23.84767 -18.02032 26.60399 -0.72703 0.76760 52.10082 -42.96159 -6.85906 25.20043 0.17668 -0.71919 -60.99347 36.98067 -2.99124 4.87701 -1.04396 3.60802 -41.57594 -8.45725 -7.72881 2.66500 0.00000 -0.00001 -0.00000 0.00000 5.00000 2.54302 0.00000 -0.00001 -0.00000 0.00000 60.00000 9.23200 -0.30098 2.14401 -80.00000 -0.00000 0.00000 4.22502 0.00000 -0.00001 -90.00000 -0.00000 0.00000 2.65398 -0.00002 -0.00001 -69.99999 -0.00000 -0.00000 8.92000 0.00002 0.00001 -80.00000 -0.00000 0.00000 4.86300 -0.00000 -0.00002 -90.00000 -0.00000 0.00000 2.76499 0.00000 0.00000 -69.99999 -0.00000 -0.00000 8.68900 -0.12600 -2.08699 -80.00000 -0.00000 0.00000 4.53801 -0.00001 0.00000 -90.00000 -0.00000 0.00000 2.30499 -0.00002 -0.00001 -69.99999 -0.00000 -0.00000 8.39101 -0.81697 -3.75798 -80.00000 -0.00000 0.00000 3.04401 0.00000 -0.00001 -90.00000 -0.00000 0.00000 1.97500 0.00000 -0.00001 -69.99999 -0.00000 -0.00000 -1.31004 -0.42842 -0.10667 18.14646 -0.86548 -2.79305 -12.35842 -0.00277 -0.08882 60.52382 -6.94728 25.62405 -26.76960 -0.21752 0.77113 87.29312 -83.46545 71.64236 -22.87228 -0.38922 0.03003 -2.24665 -57.67421 -2.43022 -4.87702 -1.04399 3.60799 37.43121 21.26006 8.20049 -2.66499 0.00000 -0.00001 0.00000 -0.00000 -4.99472 -2.54300 -0.00002 0.00001 -0.00000 -0.00000 -59.98538 -9.23201 -0.30100 2.14398 79.98050 -0.00000 0.00000 -4.22499 0.00000 -0.00001 89.97807 -0.00000 0.00000 -2.65401 -0.00002 -0.00001 69.98294 -0.00000 0.00000 -8.92001 0.00000 -0.00002 79.98050 -0.00000 0.00000 -4.86300 0.00000 0.00001 89.97807 -0.00000 0.00000 -2.76501 0.00000 0.00000 69.98294 -0.00000 0.00000 -8.68900 -0.12600 -2.08700 79.98050 -0.00000 0.00000 -4.53800 0.00000 -0.00001 89.97807 -0.00000 0.00000 -2.30502 0.00000 0.00002 69.98294 -0.00000 0.00000 -8.39102 -0.81701 -3.75801 79.98050 -0.00000 0.00000 -3.04400 0.00000 -0.00001 89.97807 -0.00000 0.00000 -1.97500 0.00000 -0.00001 69.98294 -0.00000 0.00000 -0.00627 0.72621 0.00002 -0.00001 0.00001 -0.00639 -0.01981 6.57464 -0.07065 -25.54473 3.42293 -34.33006 
-16.51198 84.42602 -213.02028 3.09184 -0.52097 34.61322 1.03682 -1.05418 2.63630 2.84093 8.77801 34.64637 0.39452 -42.10289 0.31956 -20.78838 28.36265 6.81189 0.28617 -34.76945 0.19709 -12.47210 24.03297 25.98492 -4.32191 2.18118 3.12223 7.59181 -10.61275 28.19598 0.39397 -38.03899 -1.09654 -12.66164 31.71176 12.35097 0.06384 -39.94751 -0.34042 -6.34711 31.21408 11.60408 -0.01406 30.34740 0.02120 0.86747 1.90539 20.65593 0.01191 22.26802 0.03601 1.69619 1.64029 16.49763 1.58707 -0.64420 -0.11939 -21.84839 -1.03165 2.53125 15.51181 -0.01414 -0.10342 -114.21780 -23.63008 -17.50678 26.82379 -0.60400 0.59884 52.33600 -43.56961 -6.81082 25.41555 0.14885 -0.53407 -48.32841 29.18148 -10.01602 4.87701 -1.04396 3.60802 -41.57594 -8.45725 -7.72881 2.66500 0.00000 -0.00001 -0.00000 0.00000 5.00000 2.54302 0.00000 -0.00001 -0.00000 0.00000 60.00000 9.23200 -0.30098 2.14401 -80.00000 -0.00000 0.00000 4.22502 0.00000 -0.00001 -90.00000 -0.00000 0.00000 2.65398 -0.00002 -0.00001 -69.99999 -0.00000 -0.00000 8.92000 0.00002 0.00001 -80.00000 -0.00000 0.00000 4.86300 -0.00000 -0.00002 -90.00000 -0.00000 0.00000 2.76499 0.00000 0.00000 -69.99999 -0.00000 -0.00000 8.68900 -0.12600 -2.08699 -80.00000 -0.00000 0.00000 4.53801 -0.00001 0.00000 -90.00000 -0.00000 0.00000 2.30499 -0.00002 -0.00001 -69.99999 -0.00000 -0.00000 8.39101 -0.81697 -3.75798 -80.00000 -0.00000 0.00000 3.04401 0.00000 -0.00001 -90.00000 -0.00000 0.00000 1.97500 0.00000 -0.00001 -69.99999 -0.00000 -0.00000 -1.31834 -0.40905 -0.10117 17.23093 -0.92020 -3.14612 -12.40553 -0.00103 -0.06393 62.99766 -7.55181 28.62812 -26.86371 -0.18108 0.67770 54.01697 -79.82568 39.31431 -22.41453 -0.23325 -0.07450 -1.65932 -59.33286 -5.47662 -4.87702 -1.04399 3.60799 37.43468 21.26256 8.20062 -2.66499 0.00000 -0.00001 0.00000 -0.00000 -4.99472 -2.54300 -0.00002 0.00001 -0.00000 -0.00000 -59.99103 -9.23201 -0.30100 2.14398 79.98801 -0.00000 0.00000 -4.22499 0.00000 -0.00001 89.98653 -0.00000 0.00000 -2.65401 -0.00002 -0.00001 69.98952 -0.00000 0.00000 -8.92001 0.00000 -0.00002 79.98801 -0.00000 0.00000 -4.86300 0.00000 0.00001 89.98653 -0.00000 0.00000 -2.76501 0.00000 0.00000 69.98952 -0.00000 0.00000 -8.68900 -0.12600 -2.08700 79.98801 -0.00000 0.00000 -4.53800 0.00000 -0.00001 89.98653 -0.00000 0.00000 -2.30502 0.00000 0.00002 69.98952 -0.00000 0.00000 -8.39102 -0.81701 -3.75801 79.98801 -0.00000 0.00000 -3.04400 0.00000 -0.00001 89.98653 -0.00000 0.00000 -1.97500 0.00000 -0.00001 69.98952 -0.00000 0.00000 -0.00627 0.72531 0.00002 -0.00001 0.00001 -0.00639 -0.01749 6.55546 -0.06215 -24.86045 1.57854 -34.08934 
